HIERARCHY
ROOT Hips
{
	OFFSET 0.00 0.00 0.00
	CHANNELS 6 Xposition Yposition Zposition Xrotation Yrotation Zrotation
	JOINT Spine
	{
		OFFSET 0.00000 7.50895 0.00000
		CHANNELS 3 Xrotation Yrotation Zrotation
		JOINT Head
		{
			OFFSET 0.00000 13.86115 0.00000
			CHANNELS 3 Xrotation Yrotation Zrotation
			End Site
			{
				OFFSET 0.00000 4.52755 0.00000
			}
		}
		JOINT LeftShoulder
		{
			OFFSET 0.00000 8.20478 0.00000
			CHANNELS 3 Xrotation Yrotation Zrotation
			JOINT LeftArm
			{
				OFFSET 6.63596 0.00000 0.00000
				CHANNELS 3 Xrotation Yrotation Zrotation
				JOINT LeftForeArm
				{
					OFFSET 10.27422 0.00000 0.00000
					CHANNELS 3 Yrotation Zrotation Xrotation
					JOINT LeftHand
					{
						OFFSET 8.52215 0.00000 0.00000
						CHANNELS 3 Xrotation Yrotation Zrotation
						JOINT LeftHandThumb1
						{
							OFFSET 0.00000 0.00000 0.00000
							CHANNELS 3 Xrotation Zrotation Yrotation
							End Site
							{
								OFFSET 0.00000 0.00000 3.93700
							}
						}
						End Site
						{
							OFFSET 3.93700 0.00000 0.00000
						}
					}
				}
			}
		}
		JOINT RightShoulder
		{
			OFFSET 0.00000 8.20478 0.00000
			CHANNELS 3 Xrotation Yrotation Zrotation
			JOINT RightArm
			{
				OFFSET -6.63596 0.00000 0.00000
				CHANNELS 3 Xrotation Yrotation Zrotation
				JOINT RightForeArm
				{
					OFFSET -10.27422 0.00000 0.00000
					CHANNELS 3 Yrotation Zrotation Xrotation
					JOINT RightHand
					{
						OFFSET -8.52215 0.00000 0.00000
						CHANNELS 3 Xrotation Yrotation Zrotation
						JOINT RightHandThumb1
						{
							OFFSET 0.00000 0.00000 0.00000
							CHANNELS 3 Xrotation Zrotation Yrotation
							End Site
							{
								OFFSET 0.00000 0.00000 3.93700
							}
						}
						End Site
						{
							OFFSET -3.93700 0.00000 0.00000
						}
					}
				}
			}
		}
	}
	JOINT LeftUpLeg
	{
		OFFSET 3.00056 0.00000 0.00000
		CHANNELS 3 Xrotation Yrotation Zrotation
		JOINT LeftLeg
		{
			OFFSET 0.00000 -16.49085 0.00000
			CHANNELS 3 Xrotation Yrotation Zrotation
			JOINT LeftFoot
			{
				OFFSET 0.00000 -14.55658 0.00000
				CHANNELS 3 Xrotation Yrotation Zrotation
				JOINT LeftToeBase
				{
					OFFSET 0.00000 -1.25038 4.66650
					CHANNELS 3 Xrotation Yrotation Zrotation
					End Site
					{
						OFFSET 0.00000 0.00000 2.95275
					}
				}
			}
		}
	}
	JOINT RightUpLeg
	{
		OFFSET -3.00056 0.00000 0.00000
		CHANNELS 3 Xrotation Yrotation Zrotation
		JOINT RightLeg
		{
			OFFSET 0.00000 -16.49085 0.00000
			CHANNELS 3 Xrotation Yrotation Zrotation
			JOINT RightFoot
			{
				OFFSET 0.00000 -14.55658 0.00000
				CHANNELS 3 Xrotation Yrotation Zrotation
				JOINT RightToeBase
				{
					OFFSET 0.00000 -1.25038 4.66650
					CHANNELS 3 Xrotation Yrotation Zrotation
					End Site
					{
						OFFSET 0.00000 0.00000 2.95275
					}
				}
			}
		}
	}
}
MOTION
Frames: 22
Frame Time: 0.008333
 51.5566 29.7091 -1.7285 105.4694 -65.0121 105.0869 -2.7210 -3.5892 -2.7794 -35.9799 0.3135 14.5532 17.4566 6.7468 15.3795 -25.8995 -33.8526 -77.4964 -65.4793 -0.0000 2.9911 -2.2408 27.5659 4.8332 33.1476 -0.0000 26.2537 -10.5040 -11.6018 -25.0445 21.4841 36.1913 93.1959 35.4864 0.0000 18.2313 0.0839 1.4878 -3.2266 32.8623 0.0000 -24.3270 -26.5918 -4.0503 -6.8449 53.1181 0.0000 -0.0000 6.4382 -5.1656 136.3844 93.6079 0.0000 0.0000 -68.0158 4.2079 -3.0124 111.3821 0.0000 -0.0000 -7.4767 -18.2928 -12.8216 -7.5866 0.0000 0.0000
 50.9591 29.6756 -1.8054 103.3451 -65.4387 102.4496 -2.8321 -4.8316 -1.8501 -35.6789 0.6958 14.1068 16.0777 5.7086 16.1953 -27.8145 -33.2468 -78.1910 -68.3720 -0.0000 3.4229 0.4615 27.9696 -0.9839 33.1476 -0.0000 26.2537 -10.3168 -11.8957 -25.4819 22.9467 38.7924 92.8857 36.3778 0.0000 19.4492 -0.6565 -3.9430 -9.4609 32.8623 0.0000 -24.3270 -24.5917 -4.7274 -6.3465 51.6730 -0.0000 0.0000 6.3713 -4.9418 137.1163 93.6128 -0.0000 0.0000 -70.3050 3.6258 -2.8820 110.5562 -0.0000 0.0000 -7.7951 -18.0263 -12.8014 -8.1931 -0.0000 -0.0000
 50.3378 29.6671 -1.8866 101.1735 -65.7545 99.7276 -3.0296 -6.1721 -0.8819 -35.3005 1.2033 13.7655 14.6799 4.7858 17.1060 -29.6281 -32.5538 -78.8307 -71.3527 -0.0000 4.0497 1.6101 27.2106 -3.5178 33.1476 -0.0000 26.2537 -9.9584 -12.2497 -25.9283 24.5687 39.5685 92.1045 36.3047 0.0000 19.0624 -0.6743 -4.0540 -9.4513 32.8623 0.0000 -24.3270 -22.4993 -5.3760 -5.6820 49.9187 0.0000 0.0000 6.5328 -4.9137 137.8997 93.8363 0.0000 -0.0000 -72.4132 3.0250 -2.7870 109.3527 0.0000 0.0000 -8.2596 -17.4578 -12.4527 -8.4521 -0.0000 -0.0000
 49.7038 29.6917 -1.9636 98.7257 -65.9095 96.7634 -3.3019 -7.6518 0.0852 -35.0921 1.6864 13.4721 13.6335 3.9804 18.1575 -31.6667 -31.7862 -79.3979 -74.5284 -0.0000 4.4690 2.1721 27.0258 -4.7715 33.1476 -0.0000 26.2537 -9.6396 -12.5800 -26.3378 26.4496 39.8009 91.0770 36.4774 0.0000 18.5684 -0.7135 -4.3873 -9.2461 32.8623 0.0000 -24.3270 -20.4487 -6.7023 -5.0388 47.6335 0.0000 0.0000 5.4017 -3.3368 143.9203 91.8431 -0.0000 0.0000 -74.4221 2.4267 -2.8341 107.7596 0.0000 0.0000 -8.6679 -16.8575 -12.0040 -8.4513 -0.0000 -0.0000
 49.0564 29.7492 -2.0390 96.3887 -65.9294 93.9987 -3.6324 -9.1178 0.9022 -34.8736 2.1457 13.3501 12.6561 3.1768 19.3942 -33.4842 -30.8752 -79.7671 -77.9012 -0.0000 4.7900 2.4087 26.7978 -5.3304 33.1476 -0.0000 26.2537 -9.3321 -12.8944 -26.6132 28.5218 39.5203 89.8375 36.8070 0.0000 18.2234 -0.7182 -4.4527 -9.1726 32.8623 0.0000 -24.3270 -18.3887 -7.5095 -4.3364 45.3478 -0.0000 0.0000 6.3840 -3.7541 144.2526 92.3677 -0.0000 0.0000 -76.2693 1.9894 -2.9125 105.7907 0.0000 -0.0000 -8.9287 -16.1843 -11.4666 -8.4741 -0.0000 0.0000
 48.3493 29.8272 -2.1058 94.2064 -65.9076 91.4419 -4.0619 -10.6433 1.6988 -34.5826 2.7959 13.1743 12.9182 3.2980 20.3135 -36.6477 -30.3048 -80.1088 -81.1195 -0.0000 5.2906 3.2186 26.7034 -7.1330 33.1476 -0.0000 26.2537 -8.9184 -13.3136 -26.8863 30.5826 38.9748 88.3904 37.1908 0.0000 18.0920 -0.5717 -3.7965 -8.5701 32.8623 0.0000 -24.3270 -16.0688 -8.2067 -3.6084 42.5611 0.0000 0.0000 7.9209 -4.1242 144.5016 93.9060 -0.0000 -0.0000 -77.7074 1.6176 -3.0407 104.0906 0.0000 0.0000 -9.9036 -14.9912 -11.4509 -7.3393 -0.0000 0.0000
 47.6433 29.9345 -2.1541 92.6037 -65.7531 89.4789 -4.4632 -12.0906 2.5180 -34.3380 3.3676 12.9720 12.5373 3.0711 21.5894 -38.7347 -29.2363 -80.3485 -84.4382 -0.0000 5.5677 3.7680 26.5813 -8.3727 33.1476 -0.0000 26.2537 -8.5362 -13.6478 -27.0678 32.5013 38.0000 86.8576 37.6060 0.0000 18.1543 -0.6929 -4.2652 -9.2360 32.8623 0.0000 -24.3270 -13.7815 -9.1112 -2.9352 39.5128 0.0000 -0.0000 9.8818 -4.5383 144.3179 95.7215 0.0000 -0.0000 -79.1473 1.3969 -3.0204 101.4169 -0.0000 0.0000 -10.0387 -15.1865 -9.5509 -5.8802 -0.0000 0.0000
 46.9090 30.0648 -2.2058 91.7251 -65.6741 88.1469 -4.6637 -13.3694 3.4053 -34.3032 4.0490 12.8901 12.1664 2.9730 23.1463 -40.4326 -27.9511 -80.8607 -87.8308 -0.0000 5.4493 3.6726 26.8056 -8.1006 33.1476 -0.0000 26.2537 -8.0996 -13.9585 -27.1067 34.2194 36.7139 85.2501 38.0587 0.0000 18.4016 -0.7326 -4.3872 -9.4897 32.8623 0.0000 -24.3270 -11.2613 -9.5941 -2.0324 36.3962 -0.0000 0.0000 12.9668 -5.5085 145.3888 97.3457 -0.0000 -0.0000 -80.2115 1.1217 -2.7241 98.3543 -0.0000 0.0000 -9.5368 -15.2536 -8.7342 -5.0638 -0.0000 0.0000
 46.1601 30.2157 -2.2557 91.5636 -65.4515 87.5628 -5.0300 -14.4041 4.2256 -34.2404 4.7539 12.8391 11.8138 3.0043 24.6819 -41.8418 -26.8092 -81.0987 -90.9463 -0.0000 4.9138 3.8336 26.1983 -8.6306 33.1476 -0.0000 26.2537 -7.8020 -14.1575 -27.1293 35.9158 34.8893 83.7730 38.4572 0.0000 18.5988 -0.6810 -3.9797 -9.7190 32.8623 0.0000 -24.3270 -8.8667 -9.6355 -1.0836 33.1606 -0.0000 0.0000 20.0280 -6.9806 149.9246 95.7183 0.0000 -0.0000 -81.1934 0.9679 -2.1809 95.0245 0.0000 0.0000 -8.6210 -15.2275 -7.6801 -5.4311 0.0000 -0.0000
 45.3836 30.3794 -2.2941 91.9210 -65.3335 87.4943 -5.2476 -15.3733 5.1093 -34.1432 5.6908 12.7573 11.3324 3.0384 26.1680 -42.7244 -25.5663 -81.3398 -93.9949 -0.0000 4.2730 4.0516 25.7142 -9.2718 33.1476 -0.0000 26.2537 -7.4647 -14.1795 -27.2051 37.1979 32.7046 82.5811 38.8116 0.0000 18.4524 -0.6753 -3.7493 -10.2182 32.8623 0.0000 -24.3270 -6.3532 -9.4754 -0.1683 30.2334 -0.0000 -0.0000 29.4346 -9.2107 145.5342 107.1487 -0.0000 -0.0000 -81.8231 0.7929 -1.5136 91.4304 -0.0000 0.0000 -7.4628 -14.8906 -7.1577 -5.8940 0.0000 0.0000
 44.5851 30.5538 -2.3324 92.5550 -65.2368 87.6887 -5.4070 -16.2766 6.0770 -33.9931 6.7238 12.5536 10.8346 3.0652 27.4766 -43.2175 -24.4665 -81.4916 -96.8907 -0.0000 3.8392 4.1638 25.1184 -9.7315 33.1476 -0.0000 26.2537 -7.4518 -14.0212 -27.4156 38.5321 30.6603 81.5452 39.1371 0.0000 18.5076 -0.8533 -4.1508 -11.6274 32.8623 0.0000 -24.3270 -3.8894 -8.7151 0.8517 26.9502 -0.0000 0.0000 35.8503 -12.4927 145.1890 110.6705 0.0000 0.0000 -82.1631 0.5640 -0.7598 87.6779 0.0000 -0.0000 -6.1555 -14.2937 -6.6227 -6.0088 0.0000 -0.0000
 43.7772 30.7357 -2.3650 93.6081 -65.1984 88.3324 -5.4715 -17.0159 7.0102 -33.6910 7.8927 12.3901 10.5998 3.1485 28.5518 -43.6601 -23.4620 -81.5715 -99.6036 -0.0000 4.0083 4.3361 24.4251 -10.3909 33.1476 -0.0000 26.2537 -7.1966 -13.8142 -27.5837 39.2834 28.4132 80.8431 39.3749 0.0000 18.2303 -0.9105 -4.0715 -12.6169 32.8623 0.0000 -24.3270 -1.4034 -8.4977 1.7671 24.3531 0.0000 0.0000 43.7196 -13.6160 148.9548 109.5334 -0.0000 0.0000 -82.2010 0.3394 0.0885 83.6618 0.0000 -0.0000 -4.7970 -13.7044 -5.9711 -7.1143 0.0000 -0.0000
 42.9532 30.9081 -2.3976 94.7293 -65.2845 89.0573 -5.3514 -17.6441 7.9742 -33.3229 9.1378 12.1679 10.6073 3.2703 29.3478 -44.1595 -22.6561 -81.6689 -102.1000 -0.0000 4.9008 4.6856 23.6406 -11.5519 33.1476 -0.0000 26.2537 -7.0550 -13.6372 -27.8840 39.7908 26.2183 80.3619 39.6346 0.0000 17.9924 -1.0614 -4.3175 -13.8252 32.8623 0.0000 -24.3270 1.0333 -6.8224 2.7197 21.8236 0.0000 -0.0000 54.5316 -16.6271 149.3796 107.6183 0.0000 0.0000 -81.9007 0.0828 0.9096 79.5963 0.0000 -0.0000 -3.3281 -13.0656 -4.3801 -7.9597 0.0000 -0.0000
 42.1186 31.0676 -2.4277 95.8290 -65.4634 89.8190 -5.0865 -18.2351 8.8793 -32.9321 10.4088 12.0095 10.5601 3.3166 29.8683 -44.3240 -22.1840 -81.8231 -104.4984 -0.0000 5.8099 4.9375 23.1632 -12.3869 33.1476 -0.0000 26.2537 -7.1653 -13.4570 -28.2455 40.3306 24.3632 79.8575 40.0420 0.0000 17.9538 -1.0161 -3.9506 -14.4366 32.8623 0.0000 -24.3270 3.4319 -4.6488 3.5624 19.7587 0.0000 -0.0000 60.5284 -18.5949 157.9234 105.2906 -0.0000 0.0000 -81.3057 -0.1790 1.6702 75.4566 0.0000 0.0000 -1.6976 -12.1209 -3.1884 -9.4621 0.0000 -0.0000
 41.2912 31.2026 -2.4733 96.5784 -65.6450 90.0730 -4.6665 -19.0802 10.0408 -32.4340 11.7128 11.8420 10.3554 3.2418 30.1916 -44.0011 -21.9312 -82.1016 -106.5854 -0.0000 6.8385 4.8829 22.8976 -12.3836 33.1476 -0.0000 26.2537 -7.3818 -12.9888 -28.7636 40.7009 22.5765 79.6240 40.6266 0.0000 18.4514 -1.0324 -3.9937 -14.5070 32.8623 0.0000 -24.3270 5.7991 -2.2005 4.5930 17.9031 0.0000 -0.0000 64.4758 -20.6430 159.6106 90.2786 -0.0000 -0.0000 -80.5657 -0.7033 2.3098 71.3346 0.0000 0.0000 0.1615 -11.2514 -1.5872 -11.0501 -0.0000 0.0000
 40.4691 31.3116 -2.5151 97.2364 -65.9071 90.3030 -4.0681 -19.8608 11.1026 -32.0748 12.8176 11.7227 9.9420 2.9183 30.3391 -43.1600 -21.6979 -82.5199 -108.4654 -0.0000 7.0695 5.0543 22.4453 -13.0425 33.1476 -0.0000 26.2537 -7.6674 -12.7842 -29.2515 40.7341 21.1359 79.3286 41.2819 0.0000 19.2030 -0.9217 -3.6368 -14.2313 32.8623 0.0000 -24.3270 8.0626 0.7609 5.4156 15.1067 -0.0000 0.0000 70.8814 -22.7199 158.4502 80.0548 -0.0000 0.0000 -79.6308 -1.2046 2.8793 67.2575 -0.0000 0.0000 2.1077 -10.5474 -0.2380 -12.3619 0.0000 0.0000
 39.6606 31.3963 -2.5500 97.3035 -66.0879 89.9837 -3.5470 -20.6561 12.1585 -31.6991 13.6805 11.4593 9.9136 2.6612 30.1067 -42.6660 -21.9653 -83.0428 -109.8322 -0.0000 6.5775 5.1618 22.0761 -13.5150 33.1476 -0.0000 26.2537 -7.7515 -13.0541 -29.6402 40.2509 19.9193 78.9102 42.0495 0.0000 20.0888 -0.8515 -3.3774 -14.1590 32.8623 0.0000 -24.3270 9.9580 2.4681 6.3433 13.4135 -0.0000 0.0000 73.9414 -25.5222 154.7037 60.8539 0.0000 -0.0000 -78.7084 -1.8300 3.1778 63.3422 0.0000 -0.0000 3.9702 -9.7056 0.9768 -12.5809 0.0000 0.0000
 38.8541 31.4638 -2.5614 97.2112 -66.2670 89.8676 -3.0820 -21.4356 12.6895 -31.6225 14.3029 11.4569 9.6477 2.4380 29.5266 -41.9383 -22.6899 -83.7599 -110.4228 -0.0000 5.3967 5.2857 21.1053 -14.4092 33.1476 -0.0000 26.2537 -7.9144 -13.3775 -29.6550 39.6553 18.9190 78.3703 42.8394 0.0000 20.5433 -0.8854 -3.4510 -14.3989 32.8623 0.0000 -24.3270 11.2552 3.2035 6.9151 13.6525 0.0000 0.0000 71.7650 -27.9495 146.3435 36.0877 -0.0000 -0.0000 -77.7383 -2.3179 3.2491 59.6757 0.0000 0.0000 5.6912 -8.7715 0.9408 -12.9427 -0.0000 -0.0000
 38.0597 31.5193 -2.5276 96.3063 -66.2724 89.4482 -2.9885 -22.4389 12.6651 -31.7010 14.8572 11.4934 9.3564 2.2597 28.4471 -41.0631 -23.8648 -84.6058 -110.3063 -0.0000 4.0595 5.5986 20.4287 -15.6871 33.1476 -0.0000 26.2537 -8.0233 -13.5658 -29.2944 39.0926 17.9619 77.7330 43.6962 0.0000 20.5523 -0.9446 -3.5232 -15.0181 32.8623 0.0000 -24.3270 11.5017 0.6584 7.0710 16.6538 -0.0000 0.0000 72.1841 -26.2486 148.6979 31.7362 -0.0000 -0.0000 -76.9446 -2.6869 2.7455 56.3927 0.0000 -0.0000 6.9604 -7.9298 0.5453 -13.7138 0.0000 -0.0000
 37.2742 31.5487 -2.4784 94.8959 -66.3118 88.7530 -2.9134 -23.7281 12.3847 -31.7052 15.6390 11.6607 9.0766 2.3297 26.9984 -40.1566 -25.4336 -85.5207 -109.3334 -0.0000 2.9750 5.9472 20.0204 -16.9242 33.1476 -0.0000 26.2537 -8.1247 -13.3554 -28.8056 38.4618 17.1467 77.2648 44.5172 0.0000 20.1911 -1.0186 -3.5875 -15.8616 32.8623 0.0000 -24.3270 11.5477 -1.4202 6.7434 20.2040 0.0000 -0.0000 71.5225 -23.0122 149.5828 32.3820 0.0000 -0.0000 -76.1081 -3.1408 1.9260 53.5289 0.0000 -0.0000 7.6561 -7.6148 0.9117 -14.1091 0.0000 -0.0000
 36.4942 31.5488 -2.4020 93.2026 -66.4628 87.9948 -2.8677 -24.5852 11.8238 -31.8039 16.0937 11.6801 9.0182 2.0689 25.4514 -39.4123 -26.6617 -86.7349 -107.5215 -0.0000 2.0096 6.5119 19.3747 -18.9874 33.1476 -0.0000 26.2537 -8.3928 -13.3439 -28.3559 37.8652 16.6460 76.8701 45.3878 0.0000 19.5641 -1.1087 -3.7428 -16.5129 32.8623 0.0000 -24.3270 11.0165 -1.7426 5.8768 25.2551 0.0000 -0.0000 69.8604 -17.2115 151.9968 43.5468 0.0000 0.0000 -75.1895 -3.6415 0.8353 51.2661 -0.0000 0.0000 7.9125 -7.4379 2.1530 -14.1350 -0.0000 -0.0000
 35.7291 31.5250 -2.3428 91.2478 -66.6549 86.8302 -2.6290 -25.3194 11.4543 -32.0895 16.3364 11.4868 9.1870 1.7738 23.8370 -38.8518 -27.8203 -88.0136 -104.9514 -0.0000 1.9510 6.9906 18.9669 -20.6697 33.1476 -0.0000 26.2537 -8.8579 -13.2632 -28.0852 37.1514 16.5699 76.6179 46.1233 0.0000 18.8835 -1.2180 -3.9725 -17.0607 32.8623 0.0000 -24.3270 10.2570 -1.6155 5.2407 30.8554 -0.0000 0.0000 68.4729 -11.7141 151.0363 42.1719 0.0000 -0.0000 -74.1724 -4.3764 -0.2404 49.4955 -0.0000 0.0000 8.1639 -7.2668 3.0885 -13.6760 0.0000 0.0000
